<svg xmlns="http://www.w3.org/2000/svg" xmlns:xlink="http://www.w3.org/1999/xlink" width="500" zoomAndPan="magnify" viewBox="0 0 375 374.999991" height="500" preserveAspectRatio="xMidYMid meet" version="1.0"><defs><filter x="0%" y="0%" width="100%" height="100%" id="421bcad19a"><feColorMatrix values="0 0 0 0 1 0 0 0 0 1 0 0 0 0 1 0 0 0 1 0" color-interpolation-filters="sRGB"/></filter><clipPath id="36b9d89ae7"><path d="M 0 47 L 375 47 L 375 329.589844 L 0 329.589844 Z M 0 47 " clip-rule="nonzero"/></clipPath><mask id="5cb2479727"><g filter="url(#421bcad19a)"><rect x="-37.5" width="450" fill="#000000" y="-37.499999" height="449.999989" fill-opacity="0.25"/></g></mask><clipPath id="1f1cee03c2"><path d="M 1 0.160156 L 193 0.160156 L 193 132 L 1 132 Z M 1 0.160156 " clip-rule="nonzero"/></clipPath><clipPath id="1233f400d2"><rect x="0" width="194" y="0" height="133"/></clipPath><mask id="b207fcb0a5"><g filter="url(#421bcad19a)"><rect x="-37.5" width="450" fill="#000000" y="-37.499999" height="449.999989" fill-opacity="0.3"/></g></mask><clipPath id="1257b6dfd2"><path d="M 1 0.601562 L 150 0.601562 L 150 113 L 1 113 Z M 1 0.601562 " clip-rule="nonzero"/></clipPath><clipPath id="e711efac11"><rect x="0" width="151" y="0" height="114"/></clipPath><clipPath id="b566b32b0f"><path d="M 112 210 L 267 210 L 267 329.589844 L 112 329.589844 Z M 112 210 " clip-rule="nonzero"/></clipPath><clipPath id="a7e46cdcd1"><path d="M 112 190 L 311 190 L 311 329.589844 L 112 329.589844 Z M 112 190 " clip-rule="nonzero"/></clipPath><mask id="22daedffed"><g filter="url(#421bcad19a)"><rect x="-37.5" width="450" fill="#000000" y="-37.499999" height="449.999989" fill-opacity="0.15"/></g></mask><clipPath id="dcfc335df8"><path d="M 0.199219 0.199219 L 173 0.199219 L 173 271 L 0.199219 271 Z M 0.199219 0.199219 " clip-rule="nonzero"/></clipPath><clipPath id="38b78baf88"><rect x="0" width="173" y="0" height="272"/></clipPath></defs><path fill="#0c1422" d="M 371.453125 326 L 220.90625 326 L 78.039062 324.191406 L 3.460938 323.246094 C 7.300781 307.648438 24.035156 241.179688 48.304688 187.890625 C 49.515625 185.230469 50.75 182.605469 52 180.015625 C 65.15625 152.765625 75.074219 140.925781 87.546875 132.730469 C 95.617188 127.425781 100.953125 126.144531 108.515625 122.078125 C 112.234375 120.066406 115.789062 117.800781 119.1875 115.28125 C 126.765625 109.722656 131.363281 104.167969 149.925781 84.066406 C 158.664062 74.59375 166.789062 65.296875 174.296875 56.171875 C 175.214844 55.070312 176.261719 54.113281 177.445312 53.300781 C 178.5 52.578125 179.632812 52 180.835938 51.566406 C 182.039062 51.132812 183.28125 50.855469 184.554688 50.738281 C 185.832031 50.621094 187.097656 50.667969 188.363281 50.875 C 189.625 51.082031 190.84375 51.445312 192.015625 51.964844 C 194.464844 53.050781 197.066406 54.320312 199.855469 55.792969 C 202.269531 57.089844 204.78125 58.546875 207.347656 60.183594 C 222.945312 70.128906 234.792969 83.070312 244.957031 97.902344 C 254.769531 112.21875 263.003906 128.269531 271.542969 145.121094 C 287.34375 176.277344 287.664062 185.601562 301.859375 196.53125 C 314.839844 206.550781 323.925781 205.945312 335.308594 218.570312 C 344.21875 228.449219 347.191406 238.277344 352.945312 258.511719 C 360.699219 285.871094 366.90625 308.8125 371.453125 326 Z M 371.453125 326 " fill-opacity="1" fill-rule="nonzero"/><g clip-path="url(#36b9d89ae7)"><path fill="#f1efe7" d="M 371.453125 329.351562 L 220.863281 329.351562 L 3.417969 326.597656 C 3.167969 326.59375 2.917969 326.5625 2.675781 326.5 C 2.429688 326.441406 2.195312 326.355469 1.96875 326.242188 C 1.742188 326.128906 1.535156 325.992188 1.339844 325.832031 C 1.144531 325.671875 0.96875 325.492188 0.816406 325.292969 C 0.660156 325.09375 0.53125 324.878906 0.425781 324.652344 C 0.316406 324.421875 0.238281 324.1875 0.183594 323.941406 C 0.132812 323.691406 0.105469 323.445312 0.109375 323.191406 C 0.113281 322.941406 0.144531 322.691406 0.203125 322.445312 C 6.6875 296.128906 24.421875 229.433594 48.988281 178.550781 C 55.582031 164.882812 61.425781 154.914062 67.371094 147.183594 C 72.484375 140.371094 78.597656 134.617188 85.703125 129.917969 C 89.941406 127.183594 94.382812 124.84375 99.035156 122.894531 C 105.519531 120.1875 111.578125 116.738281 117.214844 112.546875 C 123.246094 108.132812 127.238281 103.789062 139.109375 90.878906 C 141.5625 88.214844 144.324219 85.203125 147.53125 81.757812 C 155.820312 72.78125 163.980469 63.441406 171.777344 54.019531 C 172.410156 53.25 173.101562 52.539062 173.847656 51.886719 C 174.597656 51.230469 175.394531 50.640625 176.238281 50.117188 C 177.082031 49.589844 177.960938 49.136719 178.878906 48.757812 C 179.796875 48.375 180.738281 48.066406 181.707031 47.839844 C 182.675781 47.609375 183.652344 47.460938 184.644531 47.390625 C 185.636719 47.320312 186.628906 47.332031 187.617188 47.421875 C 188.605469 47.511719 189.582031 47.679688 190.546875 47.929688 C 191.507812 48.179688 192.441406 48.503906 193.351562 48.90625 C 198.828125 51.3125 204.085938 54.121094 209.132812 57.328125 C 223.558594 66.523438 235.636719 78.550781 247.148438 95.171875 C 256.941406 109.304688 265 124.789062 274.515625 143.570312 C 279.25 152.910156 282.625 160.363281 285.347656 166.308594 C 291.679688 180.277344 294.566406 186.644531 303.875 193.820312 C 308.277344 197.140625 312.988281 199.949219 318.003906 202.242188 C 324.539062 205.449219 330.710938 208.480469 337.769531 216.304688 C 347.03125 226.605469 350.113281 236.398438 356.136719 257.570312 C 362.570312 280.207031 368.808594 302.925781 374.664062 325.117188 C 374.726562 325.363281 374.761719 325.617188 374.769531 325.871094 C 374.777344 326.128906 374.753906 326.382812 374.703125 326.632812 C 374.652344 326.882812 374.570312 327.125 374.464844 327.359375 C 374.359375 327.59375 374.226562 327.808594 374.070312 328.011719 C 373.914062 328.214844 373.738281 328.398438 373.539062 328.5625 C 373.339844 328.722656 373.128906 328.863281 372.898438 328.976562 C 372.667969 329.089844 372.429688 329.175781 372.179688 329.234375 C 371.929688 329.292969 371.675781 329.324219 371.421875 329.328125 Z M 220.933594 322.65625 L 367.101562 322.65625 C 361.566406 301.847656 355.714844 280.601562 349.695312 259.429688 C 343.96875 239.292969 341.085938 230.003906 332.800781 220.816406 C 326.609375 213.953125 321.253906 211.328125 315.066406 208.289062 C 309.648438 205.804688 304.554688 202.773438 299.789062 199.191406 C 289.179688 191 285.859375 183.695312 279.257812 169.144531 C 276.570312 163.25 273.230469 155.847656 268.554688 146.636719 C 251.832031 113.632812 236.03125 82.457031 205.546875 63.003906 C 200.785156 59.972656 195.820312 57.3125 190.65625 55.027344 C 190.078125 54.769531 189.480469 54.558594 188.863281 54.394531 C 188.25 54.234375 187.625 54.125 186.992188 54.066406 C 186.359375 54.003906 185.726562 54 185.089844 54.042969 C 184.457031 54.085938 183.832031 54.183594 183.210938 54.332031 C 182.59375 54.480469 181.992188 54.675781 181.40625 54.921875 C 180.816406 55.167969 180.253906 55.460938 179.71875 55.800781 C 179.179688 56.136719 178.671875 56.519531 178.195312 56.941406 C 177.71875 57.359375 177.28125 57.820312 176.878906 58.3125 C 169.007812 67.828125 160.769531 77.261719 152.390625 86.332031 L 144.019531 95.433594 C 132.164062 108.34375 127.734375 113.175781 121.164062 117.976562 C 115.160156 122.445312 108.703125 126.128906 101.796875 129.019531 C 97.476562 130.820312 93.351562 132.984375 89.417969 135.519531 C 78.394531 142.769531 68.800781 152.976562 55.050781 181.464844 C 31.917969 229.324219 14.871094 291.523438 7.730469 319.953125 Z M 220.933594 322.65625 " fill-opacity="1" fill-rule="nonzero"/></g><g mask="url(#5cb2479727)"><g transform="matrix(1, 0, 0, 1, 114, 194)"><g clip-path="url(#1233f400d2)"><g clip-path="url(#1f1cee03c2)"><path fill="#f1efe7" d="M 192.914062 132 L 149.578125 131.695312 L 1.566406 130.667969 L 22.207031 93.617188 L 23.621094 53.066406 L 59.335938 19.980469 L 80.707031 0.230469 L 122.226562 5.519531 L 149.585938 37.699219 L 173.164062 70.753906 Z M 192.914062 132 " fill-opacity="1" fill-rule="nonzero"/></g></g></g></g><g mask="url(#b207fcb0a5)"><g transform="matrix(1, 0, 0, 1, 114, 213)"><g clip-path="url(#e711efac11)"><g clip-path="url(#1257b6dfd2)"><path fill="#f1efe7" d="M 149.578125 112.695312 L 1.566406 111.667969 L 22.207031 74.617188 L 23.621094 34.066406 L 59.335938 0.980469 L 84.699219 4.207031 L 112.0625 36.382812 L 135.640625 69.4375 Z M 149.578125 112.695312 " fill-opacity="1" fill-rule="nonzero"/></g></g></g></g><g clip-path="url(#b566b32b0f)"><path fill="#f1efe7" d="M 263.578125 329.046875 L 115.539062 328.019531 C 115.25 328.015625 114.964844 327.976562 114.683594 327.898438 C 114.40625 327.820312 114.140625 327.707031 113.890625 327.5625 C 113.640625 327.414062 113.410156 327.238281 113.207031 327.035156 C 113 326.828125 112.824219 326.601562 112.679688 326.347656 C 112.53125 326.097656 112.421875 325.832031 112.34375 325.554688 C 112.265625 325.273438 112.226562 324.988281 112.222656 324.699219 C 112.21875 324.40625 112.25 324.121094 112.320312 323.839844 C 112.390625 323.558594 112.496094 323.289062 112.632812 323.035156 C 116.53125 316.0625 120.421875 309.085938 124.308594 302.101562 C 127.167969 296.980469 130.03125 291.855469 132.886719 286.722656 L 133.570312 267.058594 L 134.277344 246.984375 C 134.304688 246.054688 134.660156 245.273438 135.347656 244.640625 L 171.0625 211.554688 C 171.425781 211.222656 171.847656 210.984375 172.316406 210.835938 C 172.789062 210.691406 173.265625 210.648438 173.757812 210.710938 L 199.121094 213.945312 C 199.984375 214.050781 200.695312 214.433594 201.253906 215.101562 L 228.613281 247.285156 C 228.679688 247.363281 228.730469 247.4375 228.789062 247.515625 L 252.371094 280.566406 C 252.566406 280.851562 252.722656 281.15625 252.832031 281.484375 L 266.761719 324.710938 C 266.839844 324.964844 266.890625 325.21875 266.90625 325.484375 C 266.925781 325.746094 266.914062 326.007812 266.871094 326.265625 C 266.828125 326.527344 266.757812 326.777344 266.65625 327.023438 C 266.554688 327.265625 266.425781 327.492188 266.269531 327.707031 C 266.113281 327.917969 265.9375 328.113281 265.738281 328.28125 C 265.535156 328.453125 265.320312 328.601562 265.085938 328.71875 C 264.851562 328.839844 264.605469 328.929688 264.347656 328.996094 C 264.09375 329.058594 263.832031 329.089844 263.570312 329.089844 Z M 121.257812 321.359375 L 258.980469 322.320312 L 246.632812 283.996094 L 223.417969 251.496094 L 196.992188 220.421875 L 174.464844 217.550781 L 140.921875 248.625 C 140.703125 254.847656 140.488281 261.074219 140.273438 267.3125 C 140.03125 274.132812 139.792969 280.953125 139.558594 287.777344 C 139.535156 288.3125 139.394531 288.820312 139.136719 289.292969 C 136.136719 294.648438 133.15625 300.015625 130.191406 305.394531 Z M 121.257812 321.359375 " fill-opacity="1" fill-rule="nonzero"/></g><g clip-path="url(#a7e46cdcd1)"><path fill="#f1efe7" d="M 306.914062 329.351562 L 115.539062 328.019531 C 115.25 328.015625 114.964844 327.976562 114.683594 327.898438 C 114.40625 327.820312 114.140625 327.707031 113.890625 327.5625 C 113.640625 327.414062 113.410156 327.238281 113.207031 327.035156 C 113 326.828125 112.824219 326.601562 112.679688 326.347656 C 112.53125 326.097656 112.421875 325.832031 112.34375 325.554688 C 112.265625 325.273438 112.226562 324.988281 112.222656 324.699219 C 112.21875 324.40625 112.25 324.121094 112.320312 323.839844 C 112.390625 323.558594 112.496094 323.289062 112.632812 323.035156 C 116.566406 316.039062 120.46875 309.035156 124.347656 302.023438 L 132.886719 286.722656 L 133.5625 267.078125 L 134.269531 246.984375 C 134.296875 246.054688 134.652344 245.273438 135.339844 244.640625 L 192.425781 191.757812 C 192.789062 191.421875 193.207031 191.179688 193.679688 191.03125 C 194.152344 190.886719 194.632812 190.847656 195.121094 190.914062 L 213.757812 193.289062 L 236.636719 196.203125 C 237.5 196.308594 238.210938 196.695312 238.769531 197.355469 L 266.128906 229.527344 L 266.304688 229.753906 L 289.886719 262.808594 C 290.085938 263.089844 290.242188 263.394531 290.347656 263.726562 L 310.089844 324.996094 C 310.167969 325.25 310.214844 325.507812 310.234375 325.769531 C 310.253906 326.03125 310.242188 326.292969 310.199219 326.554688 C 310.15625 326.8125 310.085938 327.066406 309.984375 327.308594 C 309.882812 327.550781 309.753906 327.78125 309.597656 327.992188 C 309.441406 328.207031 309.265625 328.398438 309.0625 328.570312 C 308.863281 328.742188 308.648438 328.886719 308.410156 329.007812 C 308.175781 329.125 307.933594 329.21875 307.675781 329.28125 C 307.421875 329.34375 307.160156 329.375 306.898438 329.378906 Z M 121.25 321.394531 L 302.308594 322.65625 L 284.144531 266.285156 L 260.941406 233.769531 L 234.515625 202.652344 L 212.925781 199.90625 L 195.878906 197.726562 L 140.964844 248.609375 L 140.296875 267.3125 L 139.589844 287.757812 C 139.566406 288.296875 139.425781 288.800781 139.171875 289.273438 L 130.234375 305.273438 Z M 121.25 321.394531 " fill-opacity="1" fill-rule="nonzero"/></g><g mask="url(#22daedffed)"><g transform="matrix(1, 0, 0, 1, 199, 55)"><g clip-path="url(#38b78baf88)"><g clip-path="url(#dcfc335df8)"><path fill="#f1efe7" d="M 150.003906 253.761719 C 150.84375 251.867188 150.476562 249.667969 150.0625 247.621094 C 147.75 236.179688 145.4375 224.734375 143.125 213.28125 C 141.328125 204.421875 139.503906 195.453125 135.476562 187.367188 C 127.382812 171.117188 111.519531 160.378906 96.066406 150.855469 C 91.59375 148.089844 87.039062 145.320312 83.5 141.429688 C 80.242188 137.851562 78 133.480469 75.777344 129.175781 C 52.980469 85.09375 28 42.289062 0.828125 0.761719 C 3.246094 2.058594 5.753906 3.515625 8.324219 5.148438 C 23.921875 15.09375 35.769531 28.039062 45.933594 42.867188 C 55.742188 57.183594 63.980469 73.234375 72.519531 90.085938 C 88.316406 121.246094 88.636719 130.566406 102.835938 141.496094 C 115.8125 151.519531 124.898438 150.914062 136.285156 163.535156 C 145.195312 173.414062 148.167969 183.242188 153.917969 203.476562 C 161.699219 230.839844 167.90625 253.777344 172.445312 270.964844 L 119.390625 270.964844 C 128.027344 266.707031 136.609375 262.339844 145.136719 257.871094 C 147.054688 256.902344 149.101562 255.757812 150.003906 253.761719 Z M 150.003906 253.761719 " fill-opacity="1" fill-rule="nonzero"/></g></g></g></g></svg>