<svg width="100" height="90" viewBox="0 0 100 90" fill="none" xmlns="http://www.w3.org/2000/svg">
<g clip-path="url(#clip0_18_262)">
<path fill-rule="evenodd" clip-rule="evenodd" d="M60.478 53.17C60.3521 55.9703 61.5015 57.8043 63.9258 58.6719C66.6433 63.676 67.5053 69.178 66.5116 75.1779C64.2664 76.2504 62.2553 77.4732 60.478 78.8459C49.0278 81.1503 37.5351 81.1503 26 78.8459C28.5296 72.3004 30.5409 65.5757 32.0336 58.6719C37.9283 52.7093 44.5366 47.8185 51.8585 44C55.3428 46.4841 58.216 49.5408 60.478 53.17Z" fill="url(#paint0_linear_18_262)"/>
<path opacity="0.78" fill-rule="evenodd" clip-rule="evenodd" d="M60.3511 53.1875C62.7754 54.0552 63.9248 55.8892 63.7989 58.6895C61.3746 57.8218 60.2253 55.9878 60.3511 53.1875Z" fill="url(#paint1_linear_18_262)"/>
<path fill-rule="evenodd" clip-rule="evenodd" d="M84.4841 88.0304C81.4569 86.1008 80.3076 83.0441 81.0363 78.8604C89.5151 74.8283 95.8359 76.9681 99.9992 85.2794C94.7516 85.9449 89.5799 86.8619 84.4841 88.0304Z" fill="url(#paint2_linear_18_262)"/>
<path opacity="0.62" fill-rule="evenodd" clip-rule="evenodd" d="M81.0375 78.8594C80.3088 83.0431 81.4581 86.0998 84.4853 88.0294C83.263 89.6873 81.5391 90.2986 79.3136 89.8634C78.8055 85.7636 79.3801 82.0956 81.0375 78.8594Z" fill="url(#paint3_linear_18_262)"/>
<path fill-rule="evenodd" clip-rule="evenodd" d="M51.7316 0C58.7457 3.29973 64.7793 8.19026 69.8326 14.672C73.2564 24.4022 77.5662 33.5722 82.7618 42.1819C82.636 44.9822 83.7853 46.8162 86.2096 47.6839C87.3589 47.6839 87.9335 48.2952 87.9335 49.5179C89.2361 55.5191 90.3852 61.6325 91.3813 67.8579C90.6187 70.1296 89.4693 71.9636 87.9335 73.3599C82.6896 74.0544 78.3798 76.4998 75.0043 80.6958C74.1423 80.3901 73.2804 80.0846 72.4184 79.7788C70.0629 74.2818 68.9137 68.4741 68.9706 62.3559C69.5623 58.7187 68.4129 56.2732 65.5228 55.0199C62.075 50.7406 58.6272 46.4612 55.1794 42.1819C54.2266 38.4189 52.5027 37.8075 50.0077 40.3479C43.3623 45.5924 36.7541 51.0944 30.1829 56.8539C28.4133 64.3878 26.1147 71.7237 23.2873 78.8618C17.7619 74.3453 11.7282 70.6773 5.18636 67.8579C3.96411 66.1999 2.24021 65.5887 0.0146579 66.0239C0.0146579 64.1899 0.0146579 62.3559 0.0146579 60.5219C-0.101533 57.8466 0.473043 55.4012 1.73856 53.1859C3.46246 52.5746 4.61178 51.3519 5.18636 49.5179C8.3454 48.1452 11.2185 46.3112 13.8059 44.0159C16.2603 40.3213 17.4097 36.0421 17.2536 31.1779C18.1028 26.9495 18.6774 22.67 18.9775 18.34C26.7273 15.3847 34.1977 11.7167 41.3882 7.33599C45.2741 5.6577 48.7219 3.21243 51.7316 0Z" fill="url(#paint4_linear_18_262)"/>
</g>
<defs>
<linearGradient id="paint0_linear_18_262" x1="47.2737" y1="43.7968" x2="60.6165" y2="80.0231" gradientUnits="userSpaceOnUse">
<stop stop-color="#0D2E11"/>
<stop offset="1" stop-color="#004D0A"/>
</linearGradient>
<linearGradient id="paint1_linear_18_262" x1="62.1444" y1="53.1569" x2="64.9792" y2="57.4921" gradientUnits="userSpaceOnUse">
<stop stop-color="#214E19"/>
<stop offset="1" stop-color="#0F6A00"/>
</linearGradient>
<linearGradient id="paint2_linear_18_262" x1="90.7953" y1="76.8228" x2="93.6348" y2="88.6801" gradientUnits="userSpaceOnUse">
<stop stop-color="#005F0C"/>
<stop offset="1" stop-color="#002F06"/>
</linearGradient>
<linearGradient id="paint3_linear_18_262" x1="81.9171" y1="78.7975" x2="88.1093" y2="86.0167" gradientUnits="userSpaceOnUse">
<stop stop-color="#005E0C"/>
</linearGradient>
<linearGradient id="paint4_linear_18_262" x1="47.5187" y1="-0.448315" x2="76.6821" y2="79.7128" gradientUnits="userSpaceOnUse">
<stop stop-color="#02B719"/>
<stop offset="0.31179" stop-color="#025B0E"/>
<stop offset="1" stop-color="#00660D"/>
</linearGradient>
<clipPath id="clip0_18_262">
<rect width="100" height="90" fill="white"/>
</clipPath>
</defs>
</svg>
