<svg xmlns="http://www.w3.org/2000/svg" xmlns:xlink="http://www.w3.org/1999/xlink" width="1920" zoomAndPan="magnify" viewBox="0 0 1440 809.999993" height="1080" preserveAspectRatio="xMidYMid meet" version="1.0"><defs><g/><clipPath id="97697966cc"><path d="M 959.066406 22.523438 L 1438.5625 22.523438 L 1438.5625 313.28125 L 959.066406 313.28125 Z M 959.066406 22.523438 " clip-rule="nonzero"/></clipPath></defs><g fill="#000000" fill-opacity="1"><g transform="translate(0.00000622222, 242.021623)"><g><path d="M 141.75 -163.03125 C 127.5625 -163.03125 115.359375 -157.78125 105.140625 -147.28125 C 94.921875 -136.78125 89.8125 -124.15625 89.8125 -109.40625 C 89.8125 -94.363281 94.921875 -81.59375 105.140625 -71.09375 C 115.359375 -60.59375 127.5625 -55.34375 141.75 -55.34375 C 148.5625 -55.34375 155.019531 -56.191406 161.125 -57.890625 C 167.226562 -59.597656 171.695312 -61.300781 174.53125 -63 L 178.359375 -65.5625 L 203.90625 -13.203125 C 201.914062 -11.773438 199.144531 -10 195.59375 -7.875 C 192.050781 -5.75 183.960938 -2.84375 171.328125 0.84375 C 158.703125 4.539062 145.15625 6.390625 130.6875 6.390625 C 98.613281 6.390625 70.445312 -4.890625 46.1875 -27.453125 C 21.925781 -50.015625 9.796875 -77.046875 9.796875 -108.546875 C 9.796875 -140.335938 21.925781 -167.65625 46.1875 -190.5 C 70.445312 -213.34375 98.613281 -224.765625 130.6875 -224.765625 C 145.15625 -224.765625 158.488281 -223.0625 170.6875 -219.65625 C 182.894531 -216.25 191.554688 -212.84375 196.671875 -209.4375 L 203.90625 -204.328125 L 178.359375 -152.828125 C 168.992188 -159.628906 156.789062 -163.03125 141.75 -163.03125 Z M 141.75 -163.03125 "/></g></g></g><g fill="#000000" fill-opacity="1"><g transform="translate(187.692933, 242.021623)"><g><path d="M 40.4375 -27.03125 C 20.007812 -49.3125 9.796875 -76.625 9.796875 -108.96875 C 9.796875 -141.320312 20.007812 -168.707031 40.4375 -191.125 C 60.875 -213.550781 86.84375 -224.765625 118.34375 -224.765625 C 147.289062 -224.765625 171.128906 -215.679688 189.859375 -197.515625 L 189.859375 -218.375 L 265.203125 -218.375 L 265.203125 0 L 190.703125 0 L 190.703125 -24.6875 L 189.859375 -24.6875 C 171.128906 -3.96875 147.289062 6.390625 118.34375 6.390625 C 86.84375 6.390625 60.875 -4.75 40.4375 -27.03125 Z M 104.5 -146 C 94.707031 -136.351562 89.8125 -124.007812 89.8125 -108.96875 C 89.8125 -93.9375 94.492188 -81.664062 103.859375 -72.15625 C 113.234375 -62.644531 125.582031 -57.890625 140.90625 -57.890625 C 155.65625 -57.890625 167.785156 -62.710938 177.296875 -72.359375 C 186.804688 -82.015625 191.5625 -94.21875 191.5625 -108.96875 C 191.5625 -124.007812 186.664062 -136.351562 176.875 -146 C 167.082031 -155.65625 155.09375 -160.484375 140.90625 -160.484375 C 126.425781 -160.484375 114.289062 -155.65625 104.5 -146 Z M 104.5 -146 "/></g></g></g><g fill="#000000" fill-opacity="1"><g transform="translate(457.104505, 242.021623)"><g><path d="M 80.875 -218.375 L 134.09375 -99.609375 L 187.296875 -218.375 L 276.703125 -218.375 L 159.640625 0 L 108.546875 0 L -8.515625 -218.375 Z M 80.875 -218.375 "/></g></g></g><g fill="#000000" fill-opacity="1"><g transform="translate(703.958272, 242.021623)"><g><path d="M 246.46875 -98.765625 L 88.125 -98.765625 C 88.125 -83.429688 93.085938 -72.078125 103.015625 -64.703125 C 112.953125 -57.328125 123.738281 -53.640625 135.375 -53.640625 C 147.570312 -53.640625 157.21875 -55.269531 164.3125 -58.53125 C 171.40625 -61.789062 179.492188 -68.25 188.578125 -77.90625 L 243.0625 -50.65625 C 220.363281 -12.625 182.617188 6.390625 129.828125 6.390625 C 96.910156 6.390625 68.675781 -4.890625 45.125 -27.453125 C 21.570312 -50.015625 9.796875 -77.1875 9.796875 -108.96875 C 9.796875 -140.757812 21.570312 -168.003906 45.125 -190.703125 C 68.675781 -213.410156 96.910156 -224.765625 129.828125 -224.765625 C 164.453125 -224.765625 192.617188 -214.757812 214.328125 -194.75 C 236.046875 -174.738281 246.90625 -146.144531 246.90625 -108.96875 C 246.90625 -103.863281 246.757812 -100.460938 246.46875 -98.765625 Z M 90.25 -140.484375 L 173.25 -140.484375 C 171.550781 -151.828125 167.082031 -160.550781 159.84375 -166.65625 C 152.601562 -172.757812 143.3125 -175.8125 131.96875 -175.8125 C 119.476562 -175.8125 109.539062 -172.546875 102.15625 -166.015625 C 94.78125 -159.492188 90.8125 -150.984375 90.25 -140.484375 Z M 90.25 -140.484375 "/></g></g></g><g fill="#000000" fill-opacity="1"><g transform="translate(0.00000622222, 665.408154)"><g><path d="M 250.296875 -191.34375 C 270.734375 -169.070312 280.953125 -141.757812 280.953125 -109.40625 C 280.953125 -77.050781 270.734375 -49.660156 250.296875 -27.234375 C 229.867188 -4.816406 203.90625 6.390625 172.40625 6.390625 C 143.457031 6.390625 119.617188 -2.691406 100.890625 -20.859375 L 100.890625 110.671875 L 25.546875 110.671875 L 25.546875 -218.375 L 100.03125 -218.375 L 100.03125 -193.6875 L 100.890625 -193.6875 C 119.617188 -214.40625 143.457031 -224.765625 172.40625 -224.765625 C 203.90625 -224.765625 229.867188 -213.625 250.296875 -191.34375 Z M 186.234375 -72.359375 C 196.023438 -82.015625 200.921875 -94.363281 200.921875 -109.40625 C 200.921875 -124.445312 196.238281 -136.71875 186.875 -146.21875 C 177.507812 -155.726562 165.164062 -160.484375 149.84375 -160.484375 C 135.082031 -160.484375 122.945312 -155.65625 113.4375 -146 C 103.9375 -136.351562 99.1875 -124.15625 99.1875 -109.40625 C 99.1875 -94.363281 104.082031 -82.015625 113.875 -72.359375 C 123.664062 -62.710938 135.65625 -57.890625 149.84375 -57.890625 C 164.3125 -57.890625 176.441406 -62.710938 186.234375 -72.359375 Z M 186.234375 -72.359375 "/></g></g></g><g fill="#000000" fill-opacity="1"><g transform="translate(269.411578, 665.408154)"><g><path d="M 25.546875 0 L 25.546875 -218.375 L 100.890625 -218.375 L 100.890625 -186.875 L 101.734375 -186.875 C 102.304688 -188.007812 103.226562 -189.425781 104.5 -191.125 C 105.78125 -192.832031 108.546875 -195.8125 112.796875 -200.0625 C 117.054688 -204.320312 121.597656 -208.15625 126.421875 -211.5625 C 131.253906 -214.96875 137.5 -218.019531 145.15625 -220.71875 C 152.820312 -223.414062 160.628906 -224.765625 168.578125 -224.765625 C 176.804688 -224.765625 184.890625 -223.628906 192.828125 -221.359375 C 200.773438 -219.085938 206.597656 -216.816406 210.296875 -214.546875 L 216.25 -211.140625 L 184.75 -147.28125 C 175.382812 -155.226562 162.328125 -159.203125 145.578125 -159.203125 C 136.503906 -159.203125 128.703125 -157.210938 122.171875 -153.234375 C 115.640625 -149.265625 111.023438 -144.441406 108.328125 -138.765625 C 105.640625 -133.097656 103.726562 -128.273438 102.59375 -124.296875 C 101.457031 -120.328125 100.890625 -117.207031 100.890625 -114.9375 L 100.890625 0 Z M 25.546875 0 "/></g></g></g><g fill="#000000" fill-opacity="1"><g transform="translate(460.083825, 665.408154)"><g><path d="M 46.1875 -25.953125 C 21.925781 -47.523438 9.796875 -75.195312 9.796875 -108.96875 C 9.796875 -142.75 22.421875 -170.492188 47.671875 -192.203125 C 72.929688 -213.910156 104.148438 -224.765625 141.328125 -224.765625 C 177.929688 -224.765625 208.789062 -213.835938 233.90625 -191.984375 C 259.03125 -170.128906 271.59375 -142.457031 271.59375 -108.96875 C 271.59375 -75.488281 259.316406 -47.890625 234.765625 -26.171875 C 210.210938 -4.460938 179.066406 6.390625 141.328125 6.390625 C 102.160156 6.390625 70.445312 -4.390625 46.1875 -25.953125 Z M 104.5 -146 C 94.707031 -136.351562 89.8125 -124.007812 89.8125 -108.96875 C 89.8125 -93.9375 94.492188 -81.664062 103.859375 -72.15625 C 113.234375 -62.644531 125.582031 -57.890625 140.90625 -57.890625 C 155.65625 -57.890625 167.785156 -62.710938 177.296875 -72.359375 C 186.804688 -82.015625 191.5625 -94.21875 191.5625 -108.96875 C 191.5625 -124.007812 186.664062 -136.351562 176.875 -146 C 167.082031 -155.65625 155.09375 -160.484375 140.90625 -160.484375 C 126.425781 -160.484375 114.289062 -155.65625 104.5 -146 Z M 104.5 -146 "/></g></g></g><g fill="#000000" fill-opacity="1"><g transform="translate(720.13176, 665.408154)"><g><path d="M 32.765625 -340.125 C 41.566406 -348.925781 52.066406 -353.328125 64.265625 -353.328125 C 76.472656 -353.328125 86.972656 -348.925781 95.765625 -340.125 C 104.566406 -331.320312 108.96875 -320.816406 108.96875 -308.609375 C 108.96875 -296.410156 104.566406 -285.910156 95.765625 -277.109375 C 86.972656 -268.316406 76.472656 -263.921875 64.265625 -263.921875 C 52.066406 -263.921875 41.566406 -268.316406 32.765625 -277.109375 C 23.972656 -285.910156 19.578125 -296.410156 19.578125 -308.609375 C 19.578125 -320.816406 23.972656 -331.320312 32.765625 -340.125 Z M 25.546875 -218.375 L 25.546875 19.15625 C 25.546875 39.019531 18.59375 48.953125 4.6875 48.953125 C 1.84375 48.953125 -1.132812 48.453125 -4.25 47.453125 C -7.375 46.460938 -9.929688 45.398438 -11.921875 44.265625 L -14.46875 42.5625 L -37.890625 103.4375 C -37.316406 103.726562 -35.46875 104.582031 -32.34375 106 C -29.226562 107.414062 -26.890625 108.476562 -25.328125 109.1875 C -23.765625 109.894531 -21.140625 110.816406 -17.453125 111.953125 C -13.765625 113.085938 -10.21875 113.9375 -6.8125 114.5 C -3.40625 115.070312 0.847656 115.640625 5.953125 116.203125 C 11.066406 116.773438 16.460938 117.0625 22.140625 117.0625 C 36.328125 117.0625 48.8125 114.578125 59.59375 109.609375 C 70.375 104.648438 78.601562 97.984375 84.28125 89.609375 C 89.957031 81.234375 94.144531 72.429688 96.84375 63.203125 C 99.539062 53.984375 100.890625 44.125 100.890625 33.625 L 100.890625 -218.375 Z M 25.546875 -218.375 "/></g></g></g><g fill="#000000" fill-opacity="1"><g transform="translate(825.254754, 665.408154)"><g><path d="M 246.46875 -98.765625 L 88.125 -98.765625 C 88.125 -83.429688 93.085938 -72.078125 103.015625 -64.703125 C 112.953125 -57.328125 123.738281 -53.640625 135.375 -53.640625 C 147.570312 -53.640625 157.21875 -55.269531 164.3125 -58.53125 C 171.40625 -61.789062 179.492188 -68.25 188.578125 -77.90625 L 243.0625 -50.65625 C 220.363281 -12.625 182.617188 6.390625 129.828125 6.390625 C 96.910156 6.390625 68.675781 -4.890625 45.125 -27.453125 C 21.570312 -50.015625 9.796875 -77.1875 9.796875 -108.96875 C 9.796875 -140.757812 21.570312 -168.003906 45.125 -190.703125 C 68.675781 -213.410156 96.910156 -224.765625 129.828125 -224.765625 C 164.453125 -224.765625 192.617188 -214.757812 214.328125 -194.75 C 236.046875 -174.738281 246.90625 -146.144531 246.90625 -108.96875 C 246.90625 -103.863281 246.757812 -100.460938 246.46875 -98.765625 Z M 90.25 -140.484375 L 173.25 -140.484375 C 171.550781 -151.828125 167.082031 -160.550781 159.84375 -166.65625 C 152.601562 -172.757812 143.3125 -175.8125 131.96875 -175.8125 C 119.476562 -175.8125 109.539062 -172.546875 102.15625 -166.015625 C 94.78125 -159.492188 90.8125 -150.984375 90.25 -140.484375 Z M 90.25 -140.484375 "/></g></g></g><g fill="#000000" fill-opacity="1"><g transform="translate(1060.616852, 665.408154)"><g><path d="M 141.75 -163.03125 C 127.5625 -163.03125 115.359375 -157.78125 105.140625 -147.28125 C 94.921875 -136.78125 89.8125 -124.15625 89.8125 -109.40625 C 89.8125 -94.363281 94.921875 -81.59375 105.140625 -71.09375 C 115.359375 -60.59375 127.5625 -55.34375 141.75 -55.34375 C 148.5625 -55.34375 155.019531 -56.191406 161.125 -57.890625 C 167.226562 -59.597656 171.695312 -61.300781 174.53125 -63 L 178.359375 -65.5625 L 203.90625 -13.203125 C 201.914062 -11.773438 199.144531 -10 195.59375 -7.875 C 192.050781 -5.75 183.960938 -2.84375 171.328125 0.84375 C 158.703125 4.539062 145.15625 6.390625 130.6875 6.390625 C 98.613281 6.390625 70.445312 -4.890625 46.1875 -27.453125 C 21.925781 -50.015625 9.796875 -77.046875 9.796875 -108.546875 C 9.796875 -140.335938 21.925781 -167.65625 46.1875 -190.5 C 70.445312 -213.34375 98.613281 -224.765625 130.6875 -224.765625 C 145.15625 -224.765625 158.488281 -223.0625 170.6875 -219.65625 C 182.894531 -216.25 191.554688 -212.84375 196.671875 -209.4375 L 203.90625 -204.328125 L 178.359375 -152.828125 C 168.992188 -159.628906 156.789062 -163.03125 141.75 -163.03125 Z M 141.75 -163.03125 "/></g></g></g><g fill="#000000" fill-opacity="1"><g transform="translate(1248.309779, 665.408154)"><g><path d="M 38.3125 -218.375 L 38.3125 -299.6875 L 113.65625 -299.6875 L 113.65625 -218.375 L 159.640625 -218.375 L 159.640625 -160.90625 L 113.65625 -160.90625 L 113.65625 -91.515625 C 113.65625 -71.367188 119.332031 -61.296875 130.6875 -61.296875 C 133.519531 -61.296875 136.5 -61.863281 139.625 -63 C 142.75 -64.132812 145.160156 -65.269531 146.859375 -66.40625 L 149.421875 -68.109375 L 168.140625 -7.234375 C 151.960938 1.847656 133.519531 6.390625 112.8125 6.390625 C 98.613281 6.390625 86.40625 3.90625 76.1875 -1.0625 C 65.976562 -6.03125 58.25 -12.695312 53 -21.0625 C 47.75 -29.4375 43.988281 -38.234375 41.71875 -47.453125 C 39.445312 -56.679688 38.3125 -66.546875 38.3125 -77.046875 L 38.3125 -160.90625 L 6.8125 -160.90625 L 6.8125 -218.375 Z M 38.3125 -218.375 "/></g></g></g><g clip-path="url(#97697966cc)"><path fill="#000000" d="M 1136.785156 313.027344 C 1136.742188 312.484375 1136.699219 311.945312 1136.644531 311.25 C 1136.195312 311.582031 1135.851562 311.835938 1135.292969 312.25 C 1135.292969 311.726562 1135.289062 311.363281 1135.292969 310.996094 C 1135.410156 303.601562 1134.238281 296.398438 1131.964844 289.375 C 1129.109375 280.535156 1124.671875 272.523438 1119.117188 265.113281 C 1112.855469 256.769531 1105.5 249.476562 1097.738281 242.558594 C 1095.296875 240.382812 1092.96875 238.074219 1090.675781 235.742188 C 1088.753906 233.785156 1086.414062 232.648438 1083.824219 232.058594 C 1080.589844 231.320312 1077.328125 230.730469 1074.066406 230.121094 C 1071.375 229.617188 1068.847656 228.726562 1066.527344 227.234375 C 1064.0625 225.652344 1063.207031 223.253906 1063.476562 220.535156 C 1063.703125 218.261719 1064.175781 215.957031 1064.914062 213.796875 C 1065.546875 211.960938 1065.941406 210.125 1065.921875 208.230469 C 1065.863281 202.554688 1065.9375 196.863281 1065.507812 191.214844 C 1065.066406 185.460938 1064.308594 179.707031 1063.285156 174.023438 C 1061.921875 166.464844 1059.507812 159.207031 1055.816406 152.429688 C 1052.839844 146.964844 1049.140625 142.085938 1044.199219 138.234375 C 1043.882812 137.984375 1043.519531 137.75 1043.292969 137.429688 C 1039.988281 132.765625 1035.230469 130.578125 1029.839844 129.476562 C 1025.960938 128.683594 1022.007812 128.136719 1018.207031 127.066406 C 1015.683594 126.351562 1013.210938 125.15625 1010.992188 123.734375 C 1007.335938 121.386719 1005.941406 117.550781 1005.273438 113.433594 C 1005.046875 112.035156 1004.722656 110.597656 1004.84375 109.210938 C 1005.152344 105.625 1003.824219 102.453125 1002.664062 99.226562 C 997.1875 84.03125 990.007812 69.660156 981.359375 56.054688 C 974.425781 45.148438 967.125 34.476562 959.988281 23.699219 C 959.765625 23.367188 959.535156 23.039062 959.179688 22.527344 C 963.488281 23.742188 967.367188 25.445312 971.097656 27.429688 C 977.988281 31.101562 984.792969 34.9375 991.648438 38.671875 C 997.460938 41.832031 1003.492188 44.410156 1009.945312 46.035156 C 1015.273438 47.375 1020.5 49.121094 1025.785156 50.640625 C 1032.519531 52.578125 1039.375 53.972656 1046.351562 54.585938 C 1057.53125 55.570312 1068.570312 54.851562 1079.242188 51.019531 C 1081.863281 50.082031 1084.390625 48.894531 1086.957031 47.8125 C 1087.472656 47.59375 1087.96875 47.335938 1088.558594 47.054688 C 1088.667969 47.445312 1088.75 47.734375 1088.855469 48.101562 C 1089.363281 47.902344 1089.835938 47.71875 1090.476562 47.46875 C 1090.386719 48.632812 1090.3125 49.695312 1090.21875 50.753906 C 1089.359375 60.441406 1089.386719 70.121094 1090.484375 79.789062 C 1091.902344 92.253906 1095.027344 104.210938 1100.855469 115.398438 C 1105.738281 124.773438 1110.328125 134.304688 1115.347656 143.605469 C 1122.039062 156.003906 1129.59375 167.859375 1138.894531 178.507812 C 1140.785156 180.671875 1142.796875 182.734375 1144.816406 184.78125 C 1145.132812 185.105469 1145.832031 185.289062 1146.289062 185.199219 C 1150.300781 184.425781 1153.292969 182 1155.921875 179.042969 C 1159.589844 174.921875 1162.191406 170.097656 1164.914062 165.355469 C 1167.175781 161.421875 1169.441406 157.488281 1171.722656 153.566406 C 1172.125 152.875 1172.617188 152.230469 1173.253906 151.617188 C 1173.125 152.445312 1172.992188 153.273438 1172.859375 154.101562 C 1172.921875 154.132812 1172.988281 154.171875 1173.054688 154.203125 C 1173.65625 153.386719 1174.257812 152.566406 1175.058594 151.484375 C 1174.820312 153.121094 1174.589844 154.4375 1174.441406 155.765625 C 1174.050781 159.253906 1173.957031 162.738281 1175.132812 166.113281 C 1176.695312 170.621094 1180.019531 172.921875 1184.640625 173.445312 C 1186.285156 173.628906 1187.957031 173.5625 1189.601562 173.726562 C 1190.902344 173.855469 1192.074219 174.238281 1193.117188 175.242188 C 1194.644531 176.714844 1196.246094 178.269531 1198.113281 179.191406 C 1201.246094 180.742188 1204.1875 179.414062 1206.863281 177.617188 C 1210.65625 175.066406 1213.367188 171.449219 1216.160156 167.914062 C 1216.535156 167.441406 1216.898438 166.957031 1217.394531 166.316406 C 1217.46875 167.042969 1217.527344 167.601562 1217.605469 168.363281 C 1218.117188 167.78125 1218.5 167.347656 1218.925781 166.871094 C 1218.925781 169.203125 1219.222656 171.492188 1218.871094 173.671875 C 1217.550781 181.910156 1215.972656 190.105469 1214.574219 198.332031 C 1213.738281 203.257812 1213.085938 208.210938 1213.929688 213.210938 C 1214.320312 215.539062 1215.222656 217.605469 1217.003906 219.265625 C 1218.429688 220.597656 1220.203125 220.542969 1221.90625 220.65625 C 1233.039062 221.398438 1244.023438 220.214844 1254.90625 217.910156 C 1268.074219 215.121094 1280.792969 210.851562 1293.175781 205.664062 C 1298.671875 203.367188 1303.890625 200.300781 1308.996094 197.1875 C 1321.96875 189.277344 1333.6875 179.664062 1345.171875 169.753906 C 1347.070312 168.117188 1348.957031 166.464844 1350.917969 164.757812 C 1351.175781 165.167969 1351.375 165.492188 1351.605469 165.863281 C 1351.964844 165.621094 1352.261719 165.421875 1352.625 165.175781 C 1353.5 167.300781 1354.3125 169.40625 1355.21875 171.46875 C 1360.3125 183.019531 1367.230469 193.410156 1375.367188 203.011719 C 1382.878906 211.878906 1391.320312 219.824219 1399.71875 227.820312 C 1411.167969 238.71875 1424.140625 247.558594 1437.40625 256.015625 C 1437.679688 256.191406 1437.953125 256.363281 1438.21875 256.542969 C 1438.277344 256.582031 1438.300781 256.664062 1438.460938 256.914062 C 1435.941406 256.785156 1433.546875 256.644531 1431.152344 256.550781 C 1416.898438 255.984375 1402.828125 256.921875 1389.246094 261.738281 C 1381.429688 264.511719 1374.304688 268.535156 1367.875 273.777344 C 1367.519531 274.0625 1367.304688 274.535156 1367.0625 274.949219 C 1365.882812 276.972656 1364.917969 279.15625 1363.507812 281.003906 C 1359.773438 285.902344 1355.398438 287.183594 1349.675781 284.878906 C 1346.355469 283.542969 1343.230469 281.695312 1340.09375 279.945312 C 1337.9375 278.742188 1335.902344 277.324219 1333.828125 275.980469 C 1329.0625 272.902344 1324.132812 270.554688 1318.285156 269.992188 C 1311.914062 269.382812 1305.625 268.972656 1299.320312 270.265625 C 1292.144531 271.734375 1285.652344 274.71875 1279.925781 279.304688 C 1272.074219 285.589844 1266.699219 293.667969 1262.980469 302.9375 C 1262.117188 305.085938 1261.074219 307.148438 1259.328125 308.753906 C 1257.652344 310.289062 1255.722656 310.671875 1253.582031 310.011719 C 1250.453125 309.050781 1247.832031 307.195312 1245.484375 305.007812 C 1241.15625 300.976562 1237.019531 296.734375 1232.644531 292.753906 C 1230.746094 291.03125 1228.488281 289.691406 1226.324219 288.285156 C 1225.640625 287.839844 1224.730469 287.515625 1223.925781 287.519531 C 1220.363281 287.535156 1217.175781 285.988281 1213.804688 285.230469 C 1206.050781 283.492188 1198.25 283.195312 1190.394531 284.265625 C 1174.78125 286.398438 1161.117188 293.019531 1148.816406 302.632812 C 1145.152344 305.496094 1141.796875 308.75 1138.324219 311.851562 C 1137.878906 312.25 1137.570312 312.804688 1137.199219 313.285156 C 1137.054688 313.207031 1136.917969 313.117188 1136.785156 313.027344 Z M 1200.570312 213.214844 C 1200.382812 208.953125 1200.203125 204.839844 1200.015625 200.503906 C 1197.152344 202.527344 1194.234375 204.203125 1191.820312 206.417969 C 1189.792969 208.277344 1188.347656 210.769531 1186.472656 213.214844 C 1191.421875 213.214844 1195.902344 213.214844 1200.570312 213.214844 Z M 1161.71875 196.304688 C 1164.140625 199.035156 1166.535156 201.5625 1168.722656 204.257812 C 1170.457031 206.386719 1172.9375 207.113281 1175.480469 208.546875 C 1173.847656 202.632812 1172.304688 197.050781 1170.730469 191.351562 C 1167.632812 193.054688 1164.742188 194.644531 1161.71875 196.304688 Z M 1161.71875 196.304688 " fill-opacity="1" fill-rule="nonzero"/></g><path fill="#ffffff" d="M 1200.570312 213.214844 C 1195.902344 213.214844 1191.421875 213.214844 1186.46875 213.214844 C 1188.347656 210.769531 1189.792969 208.277344 1191.816406 206.417969 C 1194.234375 204.199219 1197.148438 202.527344 1200.011719 200.503906 C 1200.203125 204.839844 1200.382812 208.953125 1200.570312 213.214844 Z M 1200.570312 213.214844 " fill-opacity="1" fill-rule="nonzero"/><path fill="#ffffff" d="M 1161.71875 196.304688 C 1164.742188 194.644531 1167.632812 193.054688 1170.726562 191.351562 C 1172.300781 197.050781 1173.84375 202.632812 1175.480469 208.546875 C 1172.9375 207.113281 1170.457031 206.386719 1168.722656 204.257812 C 1166.535156 201.5625 1164.140625 199.035156 1161.71875 196.304688 Z M 1161.71875 196.304688 " fill-opacity="1" fill-rule="nonzero"/></svg>